<?xml version="1.0"?>
<svg xmlns="http://www.w3.org/2000/svg" id="8c0d68c3-cf13-4f55-93ea-debe927d9435" data-name="Layer 1" viewBox="0 0 241.31 144">
  <title>acumatica-color</title>
  <path d="M133.09,43.77H120.65a12.41,12.41,0,1,1,12.44-12.4ZM120.65,0a31.37,31.37,0,1,0,0,62.74H152.1V31.37A31.41,31.41,0,0,0,120.65,0" fill="#3cf"/>
  <path d="M14.62,78.33h2.69l4.4,19.09H10.11ZM9.43,72.18,0,111.61H6.74l1.94-7.75H23l2.17,7.75h6.74L22.62,72.18Z" fill="#003"/>
  <path d="M55,83.58l-.24,5.64s-4.51-.51-6.68-.51C42.28,88.71,41,90.87,41,97c0,6.83,1.2,9,7.2,9,2.17,0,6.68-.51,6.68-.51l.18,5.64a71,71,0,0,1-8.86,1c-8.68,0-11.83-4.39-11.83-15.21,0-10.21,3.49-14.54,12-14.54A62.21,62.21,0,0,1,55,83.58" fill="#003"/>
  <path d="M83.41,83.18v28.43H76.89v-1.43s-4.45,2.06-7.53,2.06c-8.23,0-9.89-4.22-9.89-14.19V83.18H66V98c0,6,.35,8.38,4.69,8.38a24,24,0,0,0,6.22-1.31V83.18Z" fill="#003"/>
  <path d="M88.44,111.61V83.18h6.45v1.54a18.84,18.84,0,0,1,5-1.77,14.59,14.59,0,0,1,3-.4c2.91.12,5,.91,6.4,2.39,2.51-1,6.57-2.44,9.94-2.44,7.76,0,9.93,4.27,9.93,14.24v14.87h-6.51V99.3c0-7.69-.11-10.71-4.68-10.71A18.83,18.83,0,0,0,111.68,90a47.71,47.71,0,0,1,.4,6.84v14.76h-6.51V97c0-6-.57-8.38-4.68-8.38A20.76,20.76,0,0,0,95,89.9v21.71Z" fill="#003"/>
  <path d="M156,103.86c.06,2,.68,2.56,2.34,2.85l-.23,5.53c-4.46,0-5.94-.69-7.65-2a29.27,29.27,0,0,1-9.32,2c-5.42,0-8.28-3.48-8.28-9.12,0-6.1,3.37-8.2,9.54-8.66l7.08-.57V92.18c0-2.22-1.37-3.42-3.54-3.42-4.22,0-11,.51-11,.51l-.23-5.52a92.19,92.19,0,0,1,11.6-1.26c6.28,0,9.71,2.63,9.71,9.63Zm-12.8-4.56c-2.46.23-3.77,1.31-3.77,3.65s1,3.7,2.92,3.7a33.06,33.06,0,0,0,7.13-1.14V99Z" fill="#003"/>
  <path d="M169.79,89.05v11.62c0,3.93.11,5.41,3,5.41,1.6,0,4.63-.17,4.63-.17l.28,5.58a39.8,39.8,0,0,1-5.83.8c-6.57,0-8.56-2.5-8.56-10.71V89.05h-3.6V83.18h3.6V74.92h6.51v8.26h7.71v5.87Z" fill="#003"/>
  <path d="M182,111.61h6.51V83.18H182Zm0-33h6.51V71.67H182Z" fill="#003"/>
  <path d="M213.32,83.58l-.23,5.64s-4.52-.51-6.69-.51c-5.82,0-7.14,2.16-7.14,8.32,0,6.83,1.2,9,7.2,9,2.17,0,6.68-.51,6.68-.51l.18,5.64a71,71,0,0,1-8.86,1c-8.68,0-11.82-4.39-11.82-15.21,0-10.21,3.48-14.54,12-14.54a62,62,0,0,1,8.69,1.09" fill="#003"/>
  <path d="M239,103.86c.05,2,.68,2.56,2.34,2.85l-.23,5.53c-4.46,0-5.94-.69-7.66-2a29.17,29.17,0,0,1-9.31,2c-5.42,0-8.28-3.48-8.28-9.12,0-6.1,3.37-8.2,9.54-8.66l7.08-.57V92.18c0-2.22-1.37-3.42-3.54-3.42-4.22,0-11,.51-11,.51l-.23-5.52a92.19,92.19,0,0,1,11.6-1.26c6.28,0,9.71,2.63,9.71,9.63Zm-12.8-4.56c-2.45.23-3.77,1.31-3.77,3.65s1,3.7,2.91,3.7a33.07,33.07,0,0,0,7.14-1.14V99Z" fill="#003"/>
  <path d="M55.64,131.44H51.47v-2.16H62.39v2.16H58.21v12.29H55.64Z" fill="#3cf"/>
  <path d="M64.68,128.13h2.55v4l-.09,2.1a8.55,8.55,0,0,1,1.51-1.14,3.75,3.75,0,0,1,2-.49,2.91,2.91,0,0,1,2.54,1.11,5.48,5.48,0,0,1,.8,3.2v6.8H71.4v-6.47a3.43,3.43,0,0,0-.39-1.9,1.51,1.51,0,0,0-1.31-.56,2.28,2.28,0,0,0-1.25.35,7.82,7.82,0,0,0-1.22,1v7.58H64.68Z" fill="#3cf"/>
  <path d="M76.42,138.32a6.44,6.44,0,0,1,.42-2.39A5.4,5.4,0,0,1,78,134.14a5.12,5.12,0,0,1,1.6-1.13,4.67,4.67,0,0,1,1.86-.39,4.73,4.73,0,0,1,1.94.37,3.92,3.92,0,0,1,1.41,1.06,4.82,4.82,0,0,1,.85,1.64,7.16,7.16,0,0,1,.29,2.08A5.28,5.28,0,0,1,85.8,139H78.9a3.58,3.58,0,0,0,1,2.28,3,3,0,0,0,2.17.79,4,4,0,0,0,1.32-.21,5.74,5.74,0,0,0,1.2-.58l.87,1.59a7.93,7.93,0,0,1-1.73.84,6,6,0,0,1-2,.33,5.6,5.6,0,0,1-2.1-.39A5,5,0,0,1,78,142.5a5,5,0,0,1-1.14-1.78A6.63,6.63,0,0,1,76.42,138.32Zm7.27-1a3.39,3.39,0,0,0-.54-2,2,2,0,0,0-1.67-.73,2.43,2.43,0,0,0-1.7.7,3.32,3.32,0,0,0-.9,2.07Z" fill="#3cf"/>
  <path d="M92.56,136.55a9,9,0,0,1,.52-3.17A7,7,0,0,1,94.5,131a6.15,6.15,0,0,1,2.13-1.48,6.67,6.67,0,0,1,2.61-.51,5.11,5.11,0,0,1,2.37.55,6.57,6.57,0,0,1,1.74,1.29l-1.44,1.59a4.55,4.55,0,0,0-1.18-.87,3.12,3.12,0,0,0-1.47-.32,3.7,3.7,0,0,0-1.65.36,3.75,3.75,0,0,0-1.28,1,4.93,4.93,0,0,0-.84,1.65,7.32,7.32,0,0,0-.3,2.18,6.26,6.26,0,0,0,1.07,3.88,3.48,3.48,0,0,0,2.91,1.41,3.6,3.6,0,0,0,1.69-.38,4.85,4.85,0,0,0,1.34-1.06l1.43,1.57a6.21,6.21,0,0,1-2,1.56,5.69,5.69,0,0,1-2.5.54,6.66,6.66,0,0,1-2.58-.49,5.74,5.74,0,0,1-2.08-1.43,6.91,6.91,0,0,1-1.39-2.35A9.18,9.18,0,0,1,92.56,136.55Z" fill="#3cf"/>
  <path d="M105.93,128.13h2.55v13a.92.92,0,0,0,.17.65.52.52,0,0,0,.38.19h.16a.9.9,0,0,0,.24,0l.33,1.9a3.4,3.4,0,0,1-1.35.22,2.13,2.13,0,0,1-1.92-.82,3.91,3.91,0,0,1-.56-2.23Z" fill="#3cf"/>
  <path d="M111.33,138.32a6.51,6.51,0,0,1,.42-2.41,5.19,5.19,0,0,1,1.14-1.79,4.84,4.84,0,0,1,1.64-1.12,5.19,5.19,0,0,1,3.9,0,4.78,4.78,0,0,1,1.65,1.12,5.5,5.5,0,0,1,1.14,1.79,7,7,0,0,1,0,4.82,5.61,5.61,0,0,1-1.14,1.79,4.73,4.73,0,0,1-1.65,1.1,5.19,5.19,0,0,1-3.9,0,4.79,4.79,0,0,1-1.64-1.1,5.28,5.28,0,0,1-1.14-1.79A6.51,6.51,0,0,1,111.33,138.32Zm2.61,0a4.56,4.56,0,0,0,.67,2.62,2.15,2.15,0,0,0,1.87,1,2.19,2.19,0,0,0,1.88-1,5.43,5.43,0,0,0,0-5.26,2.18,2.18,0,0,0-1.88-1,2.14,2.14,0,0,0-1.87,1A4.57,4.57,0,0,0,113.94,138.32Z" fill="#3cf"/>
  <path d="M124.17,132.88h2.54v6.48a3.33,3.33,0,0,0,.4,1.9,1.47,1.47,0,0,0,1.28.55,2.28,2.28,0,0,0,1.25-.35,5.18,5.18,0,0,0,1.16-1.15v-7.43h2.54v10.85h-2.07l-.2-1.59H131a6.26,6.26,0,0,1-1.54,1.35,3.63,3.63,0,0,1-2,.51,2.88,2.88,0,0,1-2.54-1.12,5.35,5.35,0,0,1-.8-3.19Z" fill="#3cf"/>
  <path d="M136,138.32a7.13,7.13,0,0,1,.38-2.39,5.76,5.76,0,0,1,1-1.79A4.83,4.83,0,0,1,138.9,133a4,4,0,0,1,1.72-.39,3.41,3.41,0,0,1,1.57.32,6.31,6.31,0,0,1,1.28.87l-.09-1.75v-3.93h2.54v15.6h-2.1l-.18-1.17h-.08a5.79,5.79,0,0,1-1.4,1,3.55,3.55,0,0,1-1.68.42,4,4,0,0,1-3.26-1.49A6.53,6.53,0,0,1,136,138.32Zm2.63,0a4.72,4.72,0,0,0,.63,2.68,2.08,2.08,0,0,0,1.82.92,3,3,0,0,0,2.28-1.22v-5.06a3.72,3.72,0,0,0-1.12-.71,3.17,3.17,0,0,0-1.09-.19,2.18,2.18,0,0,0-1.79.92A4.21,4.21,0,0,0,138.65,138.3Z" fill="#3cf"/>
  <path d="M154.12,129.28h8.71v2.16h-6.14v3.7h5.19v2.16h-5.19v4.27h6.36v2.16h-8.93Z" fill="#3cf"/>
  <path d="M174,143.73l-3.12-5.65h-2.21v5.65h-2.57V129.28H171a9.33,9.33,0,0,1,2.1.22,4.75,4.75,0,0,1,1.68.72,3.58,3.58,0,0,1,1.12,1.31,4.6,4.6,0,0,1,.41,2,4.28,4.28,0,0,1-.79,2.67,4.33,4.33,0,0,1-2.09,1.46l3.45,6ZM168.69,136h2.06a3.54,3.54,0,0,0,2.26-.62,2.22,2.22,0,0,0,.79-1.85,1.9,1.9,0,0,0-.79-1.75,4.36,4.36,0,0,0-2.26-.49h-2.06Z" fill="#3cf"/>
  <path d="M179.48,129.28h4.86a10.06,10.06,0,0,1,2.2.22,4.62,4.62,0,0,1,1.73.75,3.69,3.69,0,0,1,1.15,1.38,5.43,5.43,0,0,1,0,4.19,4,4,0,0,1-1.16,1.47,4.73,4.73,0,0,1-1.74.86,8,8,0,0,1-2.18.28H182v5.3h-2.56Zm4.66,7.09c2.12,0,3.18-.87,3.18-2.63a2.09,2.09,0,0,0-.79-1.89,4.49,4.49,0,0,0-2.39-.52H182v5Z" fill="#3cf"/>
</svg>
