<?xml version="1.0"?>
<svg xmlns="http://www.w3.org/2000/svg" id="a6a78210-1f2d-42eb-837e-9b91240270dd" data-name="Layer 1" viewBox="0 0 473.78 96.49">
  <title>amazon-au-color</title>
  <path d="M198.65,75.46c-18.61,13.73-45.58,21-68.81,21a124.49,124.49,0,0,1-84-32.06c-1.74-1.57-.19-3.72,1.91-2.5A169.2,169.2,0,0,0,131.8,84.24a167.41,167.41,0,0,0,64.14-13.12C199.09,69.78,201.72,73.19,198.65,75.46Z" fill="#f7981d" fill-rule="evenodd"/>
  <path d="M206.39,66.62c-2.38-3-15.73-1.44-21.73-.72-1.82.22-2.1-1.37-.46-2.52,10.65-7.48,28.1-5.32,30.13-2.82s-.54,20-10.52,28.37c-1.53,1.29-3,.6-2.31-1.09C203.74,82.23,208.77,69.67,206.39,66.62Z" fill="#f7981d" fill-rule="evenodd"/>
  <path d="M220.63,42.15c-5.69-3.19-12.31-4.13-18.58-4l16.88-24.09c1.56-2.17,2.44-3.53,2.45-4.57V3.26a1.82,1.82,0,0,0-1.88-1.83H186.93a1.8,1.8,0,0,0-1.85,1.84v7.27A1.81,1.81,0,0,0,187,12.37h17L184.44,40.42a8.77,8.77,0,0,0-1.22,5v7.37c0,1.07,1.19,2.29,2.32,1.69A37.5,37.5,0,0,1,220,54.41c1.23.64,2.4-.6,2.4-1.66V45A3.31,3.31,0,0,0,220.63,42.15Z"/>
  <path d="M107.31.49a14.09,14.09,0,0,0-13.7,9.42C90.84,3.49,87,.49,80.76.49s-10.64,3-13.05,9.42h-.18V3.27a1.87,1.87,0,0,0-1.8-1.71H56.5A1.87,1.87,0,0,0,54.58,3.4V54.26a1.86,1.86,0,0,0,1.77,1.67h9.91a1.86,1.86,0,0,0,1.91-1.83v-27c0-5.89-.27-14,6.85-14s6.1,8.35,6.1,14v27a1.86,1.86,0,0,0,1.78,1.82h9.9a1.86,1.86,0,0,0,1.91-1.83v-27c0-2.89-.09-7.17.93-9.74a6.57,6.57,0,0,1,5.92-4.17c2.87,0,5.09,1,5.83,4.39.46,2,.28,7.38.28,9.52v27a1.85,1.85,0,0,0,1.78,1.82h9.89a1.87,1.87,0,0,0,1.92-1.83V22c0-5.45.64-11.66-2.5-15.94A14.06,14.06,0,0,0,107.31.49Z"/>
  <path d="M249.42.49c-14.34,0-22.29,12.31-22.29,28.15S235,57,249.42,57c13.88,0,22.67-12.32,22.67-27.83C272.09,13.12,264.13.49,249.42.49Zm0,46c-7.77,0-7.68-13.27-7.68-19.47s.47-16.16,7.77-16.16c3.15,0,5.37,1.38,6.48,4.92,1.3,4.07,1.48,9.2,1.48,13.49C257.47,35.81,257.1,46.51,249.42,46.51Z"/>
  <path d="M306,.49c-6.84,0-10.73,3.32-13.5,10.28h-.19V3a1.9,1.9,0,0,0-1.76-1.43H281.4a1.88,1.88,0,0,0-1.91,1.66l0,50.88a1.85,1.85,0,0,0,1.78,1.82h9.87a1.89,1.89,0,0,0,1.93-1.83V26.72c0-3.43.19-6.53,1.57-9.64A6.49,6.49,0,0,1,300.4,13c6.85,0,6.2,8.14,6.2,13.71V54.33a1.84,1.84,0,0,0,1.76,1.6h9.94a1.88,1.88,0,0,0,1.9-1.6v-32c0-4.93,0-11.78-2.59-15.84C314.83,2.1,310.48.49,306,.49Z"/>
  <path d="M173,37.43V22c0-6.54.47-12.55-4.36-17.06C164.86,1.29,158.56,0,153.74,0c-9.43,0-20,3.52-22.16,15.17a1.75,1.75,0,0,0,1.48,2.08l9.6,1a2.09,2.09,0,0,0,1.72-1.83c.83-4,4.19-6,8-6a6.61,6.61,0,0,1,5.56,2.58c1.39,2,1.21,4.82,1.21,7.18v1.29c-5.75.65-13.26,1.07-18.64,3.43a16.85,16.85,0,0,0-10.57,16.2c0,10.3,6.49,15.45,14.84,15.45,7,0,10.9-1.67,16.33-7.21,1.8,2.61,2.39,3.87,5.69,6.61a2.06,2.06,0,0,0,2.34-.23l0,0c2-1.76,5.58-4.89,7.6-6.58.81-.66.67-1.73,0-2.64C175,44.11,173,42.08,173,37.43Zm-15.76,4.73c-1.57,2.78-4.08,4.5-6.86,4.5-3.8,0-6-2.9-6-7.19,0-8.44,7.57-10,14.74-10v2.14C159.12,35.51,159.21,38.72,157.26,42.16Z"/>
  <path d="M43.11,37.43V22c0-6.54.46-12.55-4.36-17.06C35,1.29,28.65,0,23.83,0c-9.44,0-20,3.52-22.17,15.17a1.76,1.76,0,0,0,1.48,2.08l9.61,1a2.09,2.09,0,0,0,1.72-1.83c.82-4,4.19-6,8-6A6.62,6.62,0,0,1,28,13.09c1.39,2,1.2,4.82,1.2,7.18v1.29c-5.74.65-13.26,1.07-18.63,3.43A16.85,16.85,0,0,0,0,41.19c0,10.3,6.49,15.45,14.83,15.45,7,0,10.9-1.67,16.34-7.21C33,52,33.56,53.3,36.85,56a2.06,2.06,0,0,0,2.34-.23l0,0c2-1.76,5.57-4.89,7.6-6.58.8-.66.66-1.73,0-2.64C45,44.11,43.11,42.08,43.11,37.43ZM27.35,42.16c-1.58,2.78-4.08,4.5-6.86,4.5-3.8,0-6-2.9-6-7.19,0-8.44,7.57-10,14.74-10v2.14C29.2,35.51,29.29,38.72,27.35,42.16Z"/>
  <path d="M326.43,53.54a3,3,0,0,1,3-3.15,3.16,3.16,0,1,1-3,3.15Z"/>
  <path d="M353.38,55.24a16.21,16.21,0,0,1-6.95,1.4c-7.3,0-12.05-5-12.05-12.35s5.1-12.85,13-12.85a14.71,14.71,0,0,1,6.1,1.25l-1,3.4a10.2,10.2,0,0,0-5.1-1.15c-5.55,0-8.55,4.1-8.55,9.15,0,5.6,3.6,9,8.4,9a12.5,12.5,0,0,0,5.4-1.2Z"/>
  <path d="M378.43,43.84c0,8.95-6.2,12.85-12.05,12.85-6.55,0-11.6-4.8-11.6-12.45,0-8.1,5.3-12.85,12-12.85C373.73,31.39,378.43,36.44,378.43,43.84Zm-19.2.25c0,5.3,3,9.3,7.35,9.3s7.35-4,7.35-9.4c0-4.1-2.05-9.3-7.25-9.3S359.23,39.49,359.23,44.09Z"/>
  <path d="M382.28,38.49c0-2.5,0-4.55-.2-6.55h3.85l.2,3.9h.15a8.34,8.34,0,0,1,7.6-4.45,7.15,7.15,0,0,1,6.85,4.85h.1a10,10,0,0,1,2.7-3.15,8.26,8.26,0,0,1,5.35-1.7c3.2,0,7.95,2.1,7.95,10.5V56.14h-4.29V42.44c0-4.65-1.71-7.45-5.26-7.45a5.7,5.7,0,0,0-5.2,4,7.25,7.25,0,0,0-.35,2.2v15h-4.3V41.64c0-3.85-1.7-6.65-5.05-6.65a6,6,0,0,0-5.45,4.4,6.06,6.06,0,0,0-.35,2.15v14.6h-4.3Z"/>
  <path d="M421.23,53.54a3,3,0,0,1,3-3.15,3.16,3.16,0,1,1-3,3.15Z"/>
  <path d="M444.33,56.14l-.35-3h-.15a9,9,0,0,1-7.4,3.6c-4.9,0-7.4-3.45-7.4-6.95,0-5.85,5.2-9.05,14.55-9v-.5c0-2-.55-5.6-5.5-5.6a12.06,12.06,0,0,0-6.3,1.8l-1-2.9a15,15,0,0,1,8-2.15c7.4,0,9.2,5,9.2,9.9v9.05a34.07,34.07,0,0,0,.4,5.8Zm-.65-12.35c-4.8-.1-10.25.75-10.25,5.45a3.89,3.89,0,0,0,4.15,4.2,6,6,0,0,0,5.85-4,4.59,4.59,0,0,0,.25-1.4Z"/>
  <path d="M473.58,49.54c0,2.5.05,4.7.2,6.6h-3.9l-.25-4h-.1a9.11,9.11,0,0,1-8,4.5c-3.8,0-8.35-2.1-8.35-10.6V31.94h4.4v13.4c0,4.6,1.4,7.7,5.4,7.7a6.36,6.36,0,0,0,5.8-4,6.43,6.43,0,0,0,.4-2.25V31.94h4.4Z"/>
</svg>
