<?xml version="1.0"?>
<svg xmlns="http://www.w3.org/2000/svg" id="7eec7512-76ec-421b-b590-15ec4d56f9c6" data-name="Layer 1" viewBox="0 0 699.54 118.78">
  <title>bandcamp-color</title>
  <path d="M152.71,92.22V.1H164V33.59h.26a22.88,22.88,0,0,1,19.37-10.39c17.83,0,28,14.63,28,33.49,0,16-6.67,37.46-29.51,37.46-11.42,0-16.16-6.54-18.47-10.26h-.26v8.34Zm28.87-58.89c-16.29,0-18.09,17.58-18.09,28.48,0,17.83,11.16,22.58,18.35,22.58,12.32,0,18.09-11.16,18.09-25.92C199.93,49.88,199,33.33,181.58,33.33Z" fill="#010101"/>
  <path d="M218.15,45.52c.51-16,11.16-22.32,27.71-22.32,5.39,0,24.89,1.54,24.89,18.73V80.54c0,2.82,1.41,4,3.72,4a21.43,21.43,0,0,0,3.72-.51v8.21c-1.92.51-3.59,1.28-6.16,1.28-10,0-11.55-5.13-11.93-10.26-4.36,4.75-11.16,10.9-24.25,10.9-12.32,0-21-7.83-21-19.37,0-5.65,1.67-18.73,20.4-21l18.6-2.31c2.7-.26,5.9-1.28,5.9-8,0-7.06-5.13-10.91-15.78-10.91-12.83,0-14.63,7.83-15.4,13ZM259.46,58c-1.8,1.41-4.62,2.44-18.6,4.23-5.52.77-14.37,2.44-14.37,10.9,0,7.31,3.72,11.68,12.19,11.68,10.52,0,20.79-6.8,20.79-15.78Z" fill="#010101"/>
  <path d="M338.11,92.22H326.82V50.91c0-11.67-3.34-17.58-14.37-17.58-6.41,0-17.71,4.11-17.71,22.32V92.22H283.45V25.12H294.1v9.49h.26c2.44-3.59,8.73-11.42,20.27-11.42,10.39,0,23.48,4.23,23.48,23.35Z" fill="#010101"/>
  <path d="M404.06,92.22H393.41V83h-.26c-4.87,9.11-12.57,11.16-19.12,11.16-22.84,0-29.51-21.43-29.51-37.46,0-18.86,10.14-33.49,28-33.49,12.19,0,17.32,7.57,20,11.42h.26V.1h11.29Zm-29.77-7.83c7.18,0,18.35-4.75,18.35-22.58,0-10.91-1.8-28.48-18.09-28.48-17.45,0-18.35,16.55-18.35,25.15C356.2,73.23,362,84.39,374.29,84.39Z" fill="#010101"/>
  <path d="M460.38,47.7c-1.41-9-6.42-14.37-15.91-14.37-14,0-18.47,13.34-18.47,25.28,0,11.55,2.82,25.79,18.35,25.79,7.57,0,14.11-5.65,16-15.91h10.9c-1.15,10.65-7.7,25.66-27.33,25.66-18.86,0-30-14.24-30-33.61,0-20.78,10-37.33,32.2-37.33,17.58,0,24.25,12.83,25.15,24.51Z" fill="#010101"/>
  <path d="M475.78,45.52c.51-16,11.16-22.32,27.71-22.32,5.39,0,24.89,1.54,24.89,18.73V80.54c0,2.82,1.41,4,3.72,4a21.42,21.42,0,0,0,3.72-.51v8.21c-1.92.51-3.59,1.28-6.16,1.28-10,0-11.55-5.13-11.93-10.26-4.36,4.75-11.16,10.9-24.25,10.9-12.32,0-21-7.83-21-19.37,0-5.65,1.67-18.73,20.4-21l18.6-2.31c2.69-.26,5.9-1.28,5.9-8,0-7.06-5.13-10.91-15.78-10.91-12.83,0-14.63,7.83-15.4,13ZM517.09,58c-1.8,1.41-4.62,2.44-18.6,4.23-5.52.77-14.37,2.44-14.37,10.9,0,7.31,3.72,11.68,12.19,11.68,10.52,0,20.78-6.8,20.78-15.78Z" fill="#010101"/>
  <path d="M541.08,25.12h10.65v9.49H552c2.44-3.59,8.21-11.42,20.27-11.42s15.91,7.31,17.83,10.91c5.65-6.29,10.14-10.91,20.53-10.91,7.19,0,20.79,3.72,20.79,22.58V92.22H620.12V48.85c0-9.24-2.82-15.52-12.45-15.52s-15.78,9-15.78,18V92.22H580.6V45.77c0-5.65-2.18-12.45-10.52-12.45-6.41,0-17.71,4.11-17.71,22.32V92.22H541.08Z" fill="#010101"/>
  <path d="M640.65,25.12h10.65v9.49h.26c2.69-3.85,7.83-11.42,20-11.42,17.83,0,28,14.63,28,33.49,0,16-6.67,37.46-29.51,37.46-9,0-14.88-4.23-17.83-9h-.26v33.62H640.65Zm29.12,59.27c12.32,0,18.09-11.16,18.09-25.92,0-8.6-.9-25.15-18.35-25.15-16.29,0-18.09,17.58-18.09,28.48C651.42,79.65,662.58,84.39,669.77,84.39Z" fill="#010101"/>
  <polygon points="109.58 92.22 0 92.22 42.62 0 152.2 0 109.58 92.22" fill="#2aaab9"/>
</svg>
