<?xml version="1.0"?>
<svg xmlns="http://www.w3.org/2000/svg" id="ebef4185-6f2d-4a07-b35a-509a851ca5e4" data-name="Layer 1" viewBox="0 0 874.96 511.88">
  <title>bestbuy-color</title>
  <polygon points="700.16 371.89 874.96 371.89 874.96 511.88 700.13 511.88 656.63 470.92 656.63 413.15 700.16 371.89" fill="#ffef00"/>
  <path d="M156.87,110.49l3.39-1.23a39.92,39.92,0,0,0,7.79-5.32,95,95,0,0,0,9.09-8.71A42.82,42.82,0,0,0,185,82.06a46.07,46.07,0,0,0,3.31-17.34q0-23.88-21.57-41.14T107.87,6.32H0v221H114.19c29.27,0,89.9-5.45,89.9-63.18,0-44.15-46.19-53.22-47.22-53.63M71.48,58.11H97.81q7.91,0,12.92,4.66a15.73,15.73,0,0,1,0,23q-5,4.65-12.92,4.65H71.48Zm49.17,112.24a21.7,21.7,0,0,1-15.51,5.82H71.48V136.5h33.66q9.35,0,15.51,5.73a18.37,18.37,0,0,1,6.17,14,18.65,18.65,0,0,1-6.17,14.1" fill="#000004"/>
  <path d="M213.68,355.1l3.39-1.23a39.6,39.6,0,0,0,7.78-5.32,93.66,93.66,0,0,0,9.09-8.7,42.87,42.87,0,0,0,7.86-13.18,46,46,0,0,0,3.32-17.33q0-23.89-21.58-41.15t-58.86-17.26H57v221H171c29.28,0,89.91-5.45,89.91-63.18,0-44.15-46.19-53.22-47.22-53.63m-85.19-52.39h26.13q7.92,0,12.93,4.66a15.75,15.75,0,0,1,0,23q-5,4.66-12.93,4.66H128.49Zm49,112.26a21.74,21.74,0,0,1-15.52,5.82H128.49V381.11h33.45a21.94,21.94,0,0,1,15.52,5.73,18.42,18.42,0,0,1,6.17,14A18.69,18.69,0,0,1,177.46,415" fill="#000004"/>
  <polygon points="387.08 173.67 280.26 173.67 280.26 139 367.48 139 367.48 88.45 280.26 88.45 280.26 60.1 387.34 60.1 387.34 6.32 208.78 6.32 208.78 227.3 387.08 227.3 387.08 173.67" fill="#000004"/>
  <polygon points="569.81 6.32 569.81 60.1 628.22 60.1 628.22 227.3 699.26 227.3 699.26 60.1 757.66 60.1 757.66 6.32 569.81 6.32" fill="#000004"/>
  <path d="M489,170.13q-5.87,5.09-16.26,5.08t-21.65-5.7q-11.25-5.7-15-9.17c-1.42-1.31-2.66-2.46-3.74-3.49l-42.15,40,2.67,2.67a80.6,80.6,0,0,0,11.86,9.55,180.72,180.72,0,0,0,18.57,11.1q10.56,5.55,26.36,9.48a134.39,134.39,0,0,0,32.59,3.93q41.91,0,66.72-21.73t24.81-52.4q0-17.72-7.16-31.12t-17.88-20.19A168,168,0,0,0,525.56,96a146.3,146.3,0,0,0-21.29-7.45l-1.9-.48a70.73,70.73,0,0,1-17.8-6.47q-7.1-3.93-7.09-9a12.54,12.54,0,0,1,4.93-10.17q4.93-4,14-4c14.43,0,23.26,6.48,27.81,11.18l42.3-40.18-.76-.89Q563,25,556.22,20.42a156.19,156.19,0,0,0-15.79-9.17q-9-4.62-23.42-7.94A134,134,0,0,0,486.88,0q-39.76,0-64,21T398.58,70.42A65.7,65.7,0,0,0,404,97.55q5.4,12,13.72,19.1a101.35,101.35,0,0,0,18.57,12.49,128.69,128.69,0,0,0,17.32,7.56c1.11.39,2.22.79,3.33,1.14q10.39,3.32,18.8,6.17a72.48,72.48,0,0,1,13.79,6.08q5.4,3.24,5.39,7.71A15.76,15.76,0,0,1,489,170.13" fill="#000004"/>
  <path d="M387.34,382.25a26.55,26.55,0,1,1-53.1,0V251H262.71v127.9a95.51,95.51,0,0,0,95.5,95.51h4.48a95.51,95.51,0,0,0,95.51-95.51V251H387.34Z" fill="#000004"/>
  <polygon points="580.37 326.17 533.53 251.01 461.91 251.01 544.63 393.09 544.63 471.99 616.11 471.99 616.11 393.09 698.82 251.01 627.21 251.01 580.37 326.17" fill="#000004"/>
  <path d="M691.39,441.78a8.65,8.65,0,1,1-8.65-8.65,8.65,8.65,0,0,1,8.65,8.65" fill="#000004"/>
  <path d="M700.21,315.54h-4v-1.36h9.66v1.36h-4v12.37h-1.67Z" fill="#1c1b1a"/>
  <path d="M707.55,314.18h2.33l4.2,12,4.15-12h2.31v13.73h-1.67V316.35l-4.08,11.56h-1.57l-4.13-11.56v11.56h-1.54Z" fill="#1c1b1a"/>
  <path d="M727.11,313.79h1.46l-5.35,17h-1.46Z" fill="#1c1b1a"/>
  <path d="M730,314.18h2.33l4.21,12,4.15-12H743v13.73h-1.67V316.35l-4.07,11.56h-1.58l-4.13-11.56v11.56H730Z" fill="#1c1b1a"/>
  <path d="M745.18,321.13V321c0-4.07,2.73-7,6.45-7,2.87,0,5.29,1.51,5.58,4.49h-1.66c-.34-2.09-1.55-3.17-3.9-3.17-2.84,0-4.74,2.21-4.74,5.67v.15c0,3.5,1.77,5.61,4.72,5.61,2.25,0,3.81-1.13,4.15-3.36h1.56c-.48,3.17-2.67,4.73-5.74,4.73C747.62,328.09,745.18,325.36,745.18,321.13Z" fill="#1c1b1a"/>
</svg>
