<?xml version="1.0"?>
<svg xmlns="http://www.w3.org/2000/svg" id="f7aa0872-a483-463b-821d-4eb2ed943730" data-name="Layer 1" viewBox="0 0 442.27 84.85">
  <title>big-cartel-color</title>
  <path d="M160.47,6.64a6.64,6.64,0,1,1,6.64,6.64A6.64,6.64,0,0,1,160.47,6.64ZM435.1,55.36a2.66,2.66,0,0,1-.9-2.34V.78H418.45V9.89H424V54.22c0,7.29,3.85,11.14,11.14,11.14A23.65,23.65,0,0,0,442.27,64V54.56C437.64,56.32,435.83,55.88,435.1,55.36Zm-262.46.16h5v9.1H157.45v-9.1h5V28.44H156.8v-9.1h15.83ZM134,18a20.45,20.45,0,0,0-15.21,6.35V.78H103v9.1h5.62c0,1.45,0,43.14,0,43.14a2.7,2.7,0,0,1-.9,2.34c-1.5,1.11-5.21-.06-7.17-.79V64a23.44,23.44,0,0,0,7.15,1.41c4.58,0,7.77-1.52,9.54-4.48a24.37,24.37,0,0,0,14.9,4.55c14.07,0,23.9-9.83,23.9-23.92C156.06,27.91,146.77,18,134,18ZM132,56.26c-7.52,0-13-6-13-14.19,0-8.63,5.41-14.65,13.17-14.65,6.34,0,13.07,4.35,13.07,13.91C145.29,50,139.71,56.26,132,56.26ZM372.1,54.56V64A26.77,26.77,0,0,1,365,65.36c-7.29,0-11.14-3.85-11.14-11.14V11.41L364,4.9V19.34H377.3l-6.63,9.1H364V53a2.64,2.64,0,0,0,.9,2.34C366.9,56.72,372.1,54.56,372.1,54.56ZM201.8,18c-13.53,0-23.36,10.15-23.36,24.13,0,13.5,9.29,23.3,22.08,23.3a21.64,21.64,0,0,0,15.12-6.25v4.85c0,9.22-8.4,11.68-13.35,11.68a18.57,18.57,0,0,1-10.89-3.59l-8.23,6.2c6.1,4.7,11.27,6.5,18.38,6.5,11.17,0,24.22-5.52,24.22-21.07V42.14C225.77,28.39,215.46,18,201.8,18Zm.4,38.33c-7.64,0-13-5.92-13-14.38,0-8.28,5.53-14.28,13.17-14.28S215.74,33.84,215.74,42,209.92,56.36,202.2,56.36ZM419.94,44.11c0-17.12-12-26.07-23.87-26.07C384.8,18,373.14,27,373.14,42c0,13.42,10.68,23.94,24.33,23.94,8.21,0,14.87-2.85,19.91-9l-7.73-5.82a14.88,14.88,0,0,1-12,5.74c-7,0-12-3.85-13.76-10.55h35.85A10.45,10.45,0,0,0,419.94,44.11Zm-36.08-7.05c1.49-6.43,6.25-10.56,12.4-10.56a13.06,13.06,0,0,1,13.15,10.56ZM330.43,27V19.34h-14v9.1h5.62V55.52h-8.15a2.92,2.92,0,0,1-2.12-.65,3,3,0,0,1-.67-2.15V33.18c0-4.45-2.28-15.15-19.27-15.15a27.64,27.64,0,0,0-14.41,4l4.07,7.57a17.73,17.73,0,0,1,10.41-2.67,11.86,11.86,0,0,1,6.16,1.67,7,7,0,0,1,2.83,6v4.24a23.81,23.81,0,0,0-11.22-3.13c-9,0-13.6,5.52-18.07,10.86s-8.78,10.29-17.38,9.91c-7.91-.35-12.66-6.3-12.66-15,0-8.11,5.05-13.4,12.37-13.64,8.08-.26,12.18,6.63,12.89,10.77l8.55-6.44c-2.92-7.31-9.94-14.52-22-14.16A23.09,23.09,0,0,0,230.78,41.6c0,11.66,7.32,24.32,23.11,24.32,10.07,0,16-4.53,20.44-9.27a15.33,15.33,0,0,0,14.22,8.72c4.74,0,8.54-1.56,13.72-5.62,1.71,3.22,5,4.87,9.76,4.87H337.9v-9.1h-5.61V44.64c0-11.21,3.83-16.21,12.43-16.21a13.27,13.27,0,0,1,5.05,1.06V20.19a17.34,17.34,0,0,0-6.07-.85A14.72,14.72,0,0,0,330.43,27ZM300.9,52.39c-3.35,3-7.46,4.79-11,4.79-4.2,0-7.13-2.67-7.13-6.49s3.19-6.77,7.6-6.77a17.82,17.82,0,0,1,10.57,4Z" fill="#222"/>
  <path d="M30.75,42.47v-3a6.08,6.08,0,0,1,2.82-5.15l25.11-16a6.08,6.08,0,0,0,2.82-5.15V0L30.75,19.58,0,0V41.37C0,52.75,5,62,13.24,67.19L30.75,78.35l17.5-11.16C56.49,62,61.49,52.75,61.49,41.37V22.88Z" fill="#222"/>
</svg>
